<svg id="Warstwa_1" data-name="Warstwa 1" xmlns="http://www.w3.org/2000/svg" viewBox="0 0 614.88 305.33"><defs><style>.cls-1{fill:#fff;}.cls-2{fill:none;stroke:#e6e6e6;stroke-linecap:round;stroke-miterlimit:10;stroke-width:16px;}</style></defs><path class="cls-1" d="M534.78-404.83c-5.16-27.48-19.66-68.34-60.38-92.49C437-519.51,398.68-515,386-512.91c-7.13-11-27.85-39.53-65.87-51.64a135.85,135.85,0,0,0-35.82-5.4A120.94,120.94,0,0,0,168.5-483.74q-5.75-.54-11.62-.55c-35.31,0-61,19.93-68.75,25.84-7.38,5.61-51.22,39-52.15,95.06-.82,49.24,32.08,81,35.75,84.47a52.24,52.24,0,0,0,13.59,9.29,52.33,52.33,0,0,0,18.35,4.86l357.31.15h70.28c38.48,0,70.14-31.67,70.14-70.15C601.4-372.07,571.65-403,534.78-404.83Z" transform="translate(13.48 569.95)"/><path class="cls-1" d="M82-312.35l95,47.53-142.71.2a48,48,0,0,1-47.73-47.73,48,48,0,0,1,47.73-47.74A48,48,0,0,1,82-312.35Z" transform="translate(13.48 569.95)"/><path class="cls-2" d="M180.1-478.9a117.44,117.44,0,0,1,47.54,18.58,118.74,118.74,0,0,1,41.85,50.21" transform="translate(13.48 569.95)"/><path class="cls-2" d="M474.12-359.93a62.53,62.53,0,0,1,20.08-28.46A62.93,62.93,0,0,1,531-401.78" transform="translate(13.48 569.95)"/><path class="cls-2" d="M390.5-497.84a105.8,105.8,0,0,1,7.79,26.17,106.29,106.29,0,0,1-1.15,39.61" transform="translate(13.48 569.95)"/></svg>