<svg xmlns="http://www.w3.org/2000/svg" viewBox="0 0 985.43 339.72"><defs><style>.cls-1{fill:#fff;}</style></defs><g id="Warstwa_3" data-name="Warstwa 3"><path class="cls-1" d="M156.34,168.92c-.37-.41-.57-.59-.65-.68-.24-.26-.48-.55-.74-.87,0,0-.25-.31-.6-.8s-.8-1.24-1.16-1.88a21.74,21.74,0,0,1-1.64-4.57.3.3,0,0,0-.34-.25.3.3,0,0,0-.25.25,17.19,17.19,0,0,1-4.8,8.8.33.33,0,0,0-.12.27.3.3,0,0,0,.12.25A17.22,17.22,0,0,1,150.9,178a.35.35,0,1,0,.7,0h0a17.17,17.17,0,0,1,3.34-7c.44-.54.93-1,1.4-1.54a.36.36,0,0,0,0-.49s0,0,0,0Z" transform="translate(-35.42 -28.88)"/><path class="cls-1" d="M234,80.41a1.77,1.77,0,0,1-.18-.19,11,11,0,0,1-2.57-4.83.08.08,0,0,0,0,0,.17.17,0,0,0-.19-.15.19.19,0,0,0-.15.15,9.8,9.8,0,0,1-2.75,5,.21.21,0,0,0-.08.16.21.21,0,0,0,.07.15,9.87,9.87,0,0,1,2.73,4.91.2.2,0,0,0,.4,0,9.81,9.81,0,0,1,1.92-4c.25-.31.54-.6.8-.89a.2.2,0,0,0,0-.28l0,0Z" transform="translate(-35.42 -28.88)"/><path class="cls-1" d="M253.17,348.39c-.8-.86-1.23-1.26-1.4-1.46-.51-.55-1-1.17-1.59-1.85,0,0-.53-.66-1.27-1.73a44.82,44.82,0,0,1-2.49-4,46.06,46.06,0,0,1-3.51-9.77.64.64,0,0,0-.74-.53.64.64,0,0,0-.53.53,36.76,36.76,0,0,1-10.27,18.82.78.78,0,0,0-.27.58.74.74,0,0,0,.26.56,36.81,36.81,0,0,1,10.15,18.28.75.75,0,0,0,1.49.09h0a36.6,36.6,0,0,1,7.17-15.06c.93-1.16,2-2.23,3-3.31a.74.74,0,0,0,.09-1l-.09-.09Z" transform="translate(-35.42 -28.88)"/><path class="cls-1" d="M426.16,85.65c-.38-.41-.58-.59-.66-.68-.23-.26-.48-.55-.74-.87,0,0-.25-.31-.59-.81A19,19,0,0,1,423,81.41a21,21,0,0,1-1.64-4.56.3.3,0,0,0-.6,0A17.22,17.22,0,0,1,416,85.64a.37.37,0,0,0-.13.28.35.35,0,0,0,.12.25,17.23,17.23,0,0,1,4.74,8.54.35.35,0,0,0,.33.37.34.34,0,0,0,.37-.33h0a17.15,17.15,0,0,1,3.35-7c.43-.54.93-1,1.39-1.54a.34.34,0,0,0,0-.49.08.08,0,0,0,0,0Z" transform="translate(-35.42 -28.88)"/><path class="cls-1" d="M289.44,243.8l-.18-.19a10.92,10.92,0,0,1-2.56-4.83v0a.18.18,0,0,0-.2-.15.17.17,0,0,0-.14.15,9.89,9.89,0,0,1-2.76,5.05.2.2,0,0,0-.07.16.19.19,0,0,0,.07.15,9.82,9.82,0,0,1,2.72,4.91.21.21,0,0,0,.19.21.2.2,0,0,0,.21-.19,9.83,9.83,0,0,1,1.93-4c.25-.32.53-.6.8-.89a.2.2,0,0,0,0-.28s0,0,0,0Z" transform="translate(-35.42 -28.88)"/><path class="cls-1" d="M80.41,328.9l-.18-.19a10.92,10.92,0,0,1-2.56-4.83,0,0,0,0,1,0,0,.17.17,0,0,0-.2-.14.16.16,0,0,0-.14.14,9.89,9.89,0,0,1-2.76,5,.2.2,0,0,0-.07.16.18.18,0,0,0,.07.15,9.86,9.86,0,0,1,2.72,4.91.21.21,0,0,0,.19.21.19.19,0,0,0,.21-.19,9.83,9.83,0,0,1,1.93-4c.25-.31.53-.6.8-.89a.2.2,0,0,0,0-.28l0,0Z" transform="translate(-35.42 -28.88)"/><path class="cls-1" d="M41.34,34.08l-.18-.19a11,11,0,0,1-2.56-4.83s0,0,0,0a.17.17,0,0,0-.2-.14.17.17,0,0,0-.14.14,10,10,0,0,1-2.76,5.06.21.21,0,0,0-.07.15.2.2,0,0,0,.07.15,9.9,9.9,0,0,1,2.72,4.91.21.21,0,0,0,.41,0,9.91,9.91,0,0,1,1.92-4c.25-.31.53-.6.8-.89a.2.2,0,0,0,0-.28l0,0Z" transform="translate(-35.42 -28.88)"/><path class="cls-1" d="M56.6,221.84l-.66-.68c-.23-.26-.48-.55-.74-.87,0,0-.25-.31-.59-.8a21.61,21.61,0,0,1-1.16-1.88A21,21,0,0,1,51.81,213a.31.31,0,0,0-.35-.25.3.3,0,0,0-.25.25,17.25,17.25,0,0,1-4.79,8.8.34.34,0,0,0-.13.27.37.37,0,0,0,.12.26,17.14,17.14,0,0,1,4.74,8.54.35.35,0,1,0,.7,0h0a17.06,17.06,0,0,1,3.35-7c.43-.54.92-1,1.39-1.54a.35.35,0,0,0,0-.49l0,0Z" transform="translate(-35.42 -28.88)"/><path class="cls-1" d="M864.07,348.61l0,0a.36.36,0,0,0,0,.49c.47.51,1,1,1.39,1.55a17,17,0,0,1,3.35,7h0a.35.35,0,0,0,.7,0,17.19,17.19,0,0,1,4.74-8.54.37.37,0,0,0,.12-.26.4.4,0,0,0-.12-.27,17.15,17.15,0,0,1-4.8-8.8.31.31,0,0,0-.6,0,21,21,0,0,1-1.64,4.57,20.2,20.2,0,0,1-1.16,1.88c-.34.5-.59.81-.59.81l-.74.86-.66.68Z" transform="translate(-35.42 -28.88)"/><path class="cls-1" d="M882.65,120.28l0,0a.2.2,0,0,0,0,.28c.27.29.55.58.8.89a9.87,9.87,0,0,1,1.93,4,.2.2,0,0,0,.21.19.22.22,0,0,0,.19-.22,9.9,9.9,0,0,1,2.72-4.91.2.2,0,0,0,0-.3,10,10,0,0,1-2.76-5.06.17.17,0,0,0-.14-.14.18.18,0,0,0-.2.14s0,0,0,0a11,11,0,0,1-2.56,4.83l-.18.19Z" transform="translate(-35.42 -28.88)"/><path class="cls-1" d="M773,177.94l-.1.09a.73.73,0,0,0,.1,1c1,1.08,2.05,2.15,3,3.31a36.71,36.71,0,0,1,7.16,15.06h0a.75.75,0,0,0,1.5-.09,36.73,36.73,0,0,1,10.15-18.28.78.78,0,0,0,.26-.56.81.81,0,0,0-.27-.58,36.78,36.78,0,0,1-10.28-18.82.62.62,0,0,0-.53-.53.63.63,0,0,0-.73.53,46.06,46.06,0,0,1-3.51,9.77,44.82,44.82,0,0,1-2.49,4c-.74,1.07-1.28,1.73-1.28,1.73-.54.68-1.07,1.3-1.58,1.85-.17.2-.6.6-1.4,1.46Z" transform="translate(-35.42 -28.88)"/><path class="cls-1" d="M700,168.92l0,0a.36.36,0,0,0,0,.49c.47.5,1,1,1.39,1.54a17.06,17.06,0,0,1,3.35,7h0a.35.35,0,0,0,.37.33.36.36,0,0,0,.33-.37,17.22,17.22,0,0,1,4.74-8.55.33.33,0,0,0,.12-.25.36.36,0,0,0-.12-.27,17.19,17.19,0,0,1-4.8-8.8.3.3,0,0,0-.25-.25.31.31,0,0,0-.35.25,21.15,21.15,0,0,1-1.64,4.57,21.61,21.61,0,0,1-1.16,1.88c-.34.49-.59.8-.59.8-.26.32-.51.61-.74.87-.08.09-.28.27-.66.68Z" transform="translate(-35.42 -28.88)"/><path class="cls-1" d="M869.23,271l0,0a.2.2,0,0,0,0,.28c.27.29.55.58.8.89a9.87,9.87,0,0,1,1.93,4,.19.19,0,0,0,.21.18.2.2,0,0,0,.19-.21,9.9,9.9,0,0,1,2.72-4.91.2.2,0,0,0,0-.3,10,10,0,0,1-2.76-5.06.17.17,0,0,0-.34,0s0,0,0,0a11,11,0,0,1-2.56,4.83l-.18.19Z" transform="translate(-35.42 -28.88)"/><path class="cls-1" d="M960,299.64l0,0a.2.2,0,0,0,0,.28c.26.29.55.57.8.89a9.81,9.81,0,0,1,1.92,4,.2.2,0,0,0,.21.19.19.19,0,0,0,.19-.21,9.87,9.87,0,0,1,2.73-4.91.21.21,0,0,0,.07-.15.24.24,0,0,0-.07-.16,9.82,9.82,0,0,1-2.76-5.05.18.18,0,0,0-.14-.15.17.17,0,0,0-.2.15,0,0,0,0,0,0,0,11,11,0,0,1-2.56,4.83l-.19.19Z" transform="translate(-35.42 -28.88)"/><path class="cls-1" d="M1014.93,73.94l0,0a.2.2,0,0,0,0,.28c.27.29.55.58.8.89a9.81,9.81,0,0,1,1.92,4,.2.2,0,0,0,.22.19.21.21,0,0,0,.19-.21,9.86,9.86,0,0,1,2.72-4.91.21.21,0,0,0,.07-.15.24.24,0,0,0-.07-.16,9.89,9.89,0,0,1-2.76-5,.18.18,0,0,0-.14-.15.17.17,0,0,0-.2.15,0,0,0,0,1,0,0,10.92,10.92,0,0,1-2.56,4.83l-.19.19Z" transform="translate(-35.42 -28.88)"/><path class="cls-1" d="M999.68,261.7l0,.05a.33.33,0,0,0,0,.48c.46.51,1,1,1.39,1.55a17.09,17.09,0,0,1,3.35,7h0a.35.35,0,0,0,.7,0,17.23,17.23,0,0,1,4.74-8.54.37.37,0,0,0,.12-.26.37.37,0,0,0-.13-.27,17.22,17.22,0,0,1-4.79-8.79.32.32,0,0,0-.25-.25.3.3,0,0,0-.35.25,21.14,21.14,0,0,1-1.64,4.56,20.2,20.2,0,0,1-1.16,1.88c-.34.5-.59.81-.59.81-.26.32-.51.6-.74.86l-.66.68Z" transform="translate(-35.42 -28.88)"/></g></svg>