<svg id="Warstwa_1" data-name="Warstwa 1" xmlns="http://www.w3.org/2000/svg" viewBox="0 0 431.25 431.25"><defs><style>.cls-1{fill:#fff;}</style></defs><polygon points="431.25 311.85 119.4 0 0 0 431.25 431.25 431.25 431.25 431.25 311.85"/><path class="cls-1" d="M665.92-282.1l-5.23-5.22,4.49-22L652-296.06l-5.22-5.23,21.45-21.45,5.22,5.23-4.55,22,13.29-13.29,5.23,5.22Z" transform="translate(-453.85 452.99)"/><path class="cls-1" d="M692.2-290.35,687.86-286l7,7-4,4-7-7-4.7,4.71,7.91,7.92-4.18,4.18-13.14-13.14,21.45-21.45,13.14,13.14-4.19,4.19Z" transform="translate(-453.85 452.99)"/><path class="cls-1" d="M737.21-253.71l-27,15.86-6.33-6.32,10.7-17.54-17.67,10.57-6.32-6.33,16-26.89,5.59,5.59-12.53,18.71,19.44-11.8,5.74,5.75-11.95,19.28,18.74-12.5Z" transform="translate(-453.85 452.99)"/><path class="cls-1" d="M720.83-228.31a3.75,3.75,0,0,1,1.13-2.88,3.85,3.85,0,0,1,2.92-1.17,4.42,4.42,0,0,1,3.07,1.42,4.34,4.34,0,0,1,1.39,3,3.83,3.83,0,0,1-1.18,2.92,3.72,3.72,0,0,1-2.87,1.13,4.38,4.38,0,0,1-3-1.41A4.46,4.46,0,0,1,720.83-228.31ZM747.48-245l-15.25,14-4.43-4.43,14-15.25Z" transform="translate(-453.85 452.99)"/></svg>