<svg xmlns="http://www.w3.org/2000/svg" viewBox="0 0 327.17 58.44"><defs><style>.cls-1{fill:#e11d48;}</style></defs><g id="Warstwa_3" data-name="Warstwa 3"><path class="cls-1" d="M89.75,38.82c-3.22-7.87-9.39-14-18.28-14.68a21.21,21.21,0,0,0-19.65,9.73C41.75,49.5,53.89,68,65.33,79a6.13,6.13,0,0,0,8.49,0C84,69.22,95.1,53.68,89.75,38.82c-2.59-7.21-14.19-4.1-11.57,3.19C82,52.64,72.41,63.71,65.33,70.47h8.49C67,64,56.78,52.4,61,42c.89-2.19,4-5.29,6.69-5.76A9.79,9.79,0,0,1,78.18,42C81.07,49.06,92.68,46,89.75,38.82Z" transform="translate(-48.07 -24.08)"/><circle class="cls-1" cx="21.51" cy="22.84" r="3.01"/></g><g id="Warstwa_2" data-name="Warstwa 2"><path d="M106.27,52.4a15.06,15.06,0,1,1,15.06,15.05A15.07,15.07,0,0,1,106.27,52.4Zm5.94,0a9.12,9.12,0,1,0,9.12-9.12A9.15,9.15,0,0,0,112.21,52.4Z" transform="translate(-48.07 -24.08)"/><path d="M145.93,64.63V79.57a3,3,0,0,1-5.94,0V52.64a15,15,0,1,1,5.94,12Zm0-12v.06a9.15,9.15,0,1,0,0-.06Z" transform="translate(-48.07 -24.08)"/><path d="M203.71,52.4a3,3,0,0,1-3,2.93H180a9.13,9.13,0,0,0,8.64,6.18,11.69,11.69,0,0,0,6.72-2,2.87,2.87,0,0,1,4,1.39,3.11,3.11,0,0,1-1.44,4,14.69,14.69,0,0,1-9.24,2.58,15.06,15.06,0,1,1,0-30.11C195.91,37.34,203.71,42.62,203.71,52.4Zm-23.7-3h17.34a8.78,8.78,0,0,0-8.7-6.12A9.17,9.17,0,0,0,180,49.4Z" transform="translate(-48.07 -24.08)"/><path d="M237.43,52.4V64.45a3,3,0,1,1-5.94,0V52.4a9.12,9.12,0,0,0-18.24,0V64.45a3,3,0,1,1-5.94,0V52.4a15.06,15.06,0,0,1,30.12,0Z" transform="translate(-48.07 -24.08)"/><path d="M271.08,67.45a15.07,15.07,0,0,1-28.61,6.6,2.93,2.93,0,0,1,1.38-4,3,3,0,0,1,4,1.32,9.12,9.12,0,0,0,17.33-3.78v-3.3A15.22,15.22,0,0,1,256,67.45,15.06,15.06,0,1,1,271.08,52.4ZM265.14,52.4A9.12,9.12,0,1,0,256,61.51,9.15,9.15,0,0,0,265.14,52.4Z" transform="translate(-48.07 -24.08)"/><path d="M298.8,40.34V55.46a12.15,12.15,0,0,1-24.3,0V40.34a3,3,0,0,1,5.94,0v15a6.21,6.21,0,1,0,12.42,0v-15a3,3,0,0,1,5.94,0Z" transform="translate(-48.07 -24.08)"/><path d="M332.52,52.4a3,3,0,0,1-3,2.93h-20.7a9.13,9.13,0,0,0,8.64,6.18,11.69,11.69,0,0,0,6.72-2,2.87,2.87,0,0,1,4,1.39,3.11,3.11,0,0,1-1.44,4,14.69,14.69,0,0,1-9.24,2.58,15.06,15.06,0,1,1,0-30.11C324.72,37.34,332.52,42.62,332.52,52.4Zm-23.7-3h17.34a8.78,8.78,0,0,0-8.7-6.12A9.17,9.17,0,0,0,308.82,49.4Z" transform="translate(-48.07 -24.08)"/><path d="M353.7,58.46a9,9,0,0,1-9,9.05A9.51,9.51,0,0,1,335.88,61a2.89,2.89,0,0,1,2.28-3.54c1.62-.3,2.76.83,3.54,2.33a2.78,2.78,0,0,0,3,1.8,3.09,3.09,0,0,0,0-6.17,9,9,0,0,1-6.36-2.64,8.75,8.75,0,0,1-2.64-6.36,9,9,0,0,1,9-9c4.2,0,8,2.88,8.64,6.24a3,3,0,0,1-2.28,3.54A3.11,3.11,0,0,1,347.52,45a2.81,2.81,0,0,0-2.82-1.62,3.06,3.06,0,0,0,0,6.12,9,9,0,0,1,6.36,2.64A8.83,8.83,0,0,1,353.7,58.46Z" transform="translate(-48.07 -24.08)"/><path d="M375.24,58.46a9,9,0,0,1-9,9.05A9.51,9.51,0,0,1,357.42,61a2.89,2.89,0,0,1,2.28-3.54c1.62-.3,2.76.83,3.54,2.33a2.78,2.78,0,0,0,3,1.8,3.09,3.09,0,0,0,0-6.17,9,9,0,0,1-6.36-2.64,8.75,8.75,0,0,1-2.64-6.36,9,9,0,0,1,9-9c4.2,0,8,2.88,8.64,6.24a3,3,0,0,1-2.28,3.54A3.11,3.11,0,0,1,369.06,45a2.81,2.81,0,0,0-2.82-1.62,3.06,3.06,0,0,0,0,6.12,9,9,0,0,1,6.36,2.64A8.83,8.83,0,0,1,375.24,58.46Z" transform="translate(-48.07 -24.08)"/></g></svg>