<svg id="Warstwa_1" data-name="Warstwa 1" xmlns="http://www.w3.org/2000/svg" viewBox="0 0 720 420"><defs><style>.cls-1{fill:#fff;}.cls-2{fill:#e6e6e6;}.cls-3{fill:#e12448;}</style></defs><g id="Warstwa_2" data-name="Warstwa 2"><rect class="cls-1" width="720" height="420" rx="38.28"/></g><path class="cls-2" d="M552.29,57.62H720v58.72H563.94a24.12,24.12,0,0,1-24.12-24.12V70.09A12.48,12.48,0,0,1,552.29,57.62Z"/><path class="cls-2" d="M498.55,40.31H720V91.55H510.2a30.61,30.61,0,0,1-30.61-30.61V59.28A19,19,0,0,1,498.55,40.31Z"/><g id="Warstwa_3" data-name="Warstwa 3"><path class="cls-1" d="M72.21,47.92c-2.4-.13-5.63.13-6.61,2.78A2.58,2.58,0,0,0,67.07,54l.32.1a5.55,5.55,0,0,0,3.8-.7A6.42,6.42,0,0,0,74,50.77a2.72,2.72,0,0,0-1-3.7L72.77,47c-1.49-.57-3,.45-4,1.48s-1.91,2.43-1.39,3.85c1.12,3,5.89.36,7.46-.87a4.14,4.14,0,0,0,1.93-3.26c-.09-1.78-1.89-2.34-3.38-2.46a6.78,6.78,0,0,0-6.5,3.77,4.3,4.3,0,0,0-.19,4.06,4.09,4.09,0,0,0,3,1.77,11,11,0,0,0,7.48-1.88,6.71,6.71,0,0,0,2.82-3,2.42,2.42,0,0,0-1.58-3,2.29,2.29,0,0,0-.52-.11,11.67,11.67,0,0,0-7,1.06,9.57,9.57,0,0,0-2.76,2,6.45,6.45,0,0,0-1.94,3.4c-.2,1.66,1.17,2.68,2.66,3.08A7.86,7.86,0,0,0,73,56.67,17.16,17.16,0,0,0,76.88,55c1.18-.67,2.71-1.49,3.12-2.89A2.6,2.6,0,0,0,78.06,49l-.18,0a10.51,10.51,0,0,0-4.36.16c-2.47.51-5.3,1.81-6.58,4.11-.67,1.22-1,2.87.15,3.92s3.12.87,4.53.67A16.88,16.88,0,0,0,78.89,55c1.12-.78,2.59-1.76,2.54-3.31S79.55,49.21,78.2,49a8.33,8.33,0,0,0-7.4,2.85,7.79,7.79,0,0,0-2,3.43c-.46,1.87,2.43,2.67,2.89.8a6.11,6.11,0,0,1,2.75-3.37,4.07,4.07,0,0,1,3.94-.53l.18.09c.41.31.4,0,0-.85.08,0-.3.31-.27.28a7.13,7.13,0,0,1-.88.68,15.63,15.63,0,0,1-2.2,1.29,12.86,12.86,0,0,1-4.66,1.29,5.31,5.31,0,0,1-1.26,0L69,54.83c-.3-.11-.23,0,.2.24-.26-.43.19.34.07.34a4,4,0,0,1,.34-.83,4,4,0,0,1,.74-.84,9,9,0,0,1,4.41-1.82,7.71,7.71,0,0,1,2.3-.08c-.27,0,.27.07.24.07h-.06q.33.21-.09-.15c.29.53-.35-1,0-.55,0,.06-.44.37-.48.41A14.76,14.76,0,0,1,72,53.84,5,5,0,0,1,70,54a4.38,4.38,0,0,1-1-.34c0-.09.26.38.16.42s.17-.4.17-.4A6.4,6.4,0,0,1,72.09,51a8.62,8.62,0,0,1,3.78-1H77c.36,0-.15,0,.31,0,.3.06.4.24.07-.07-1.18-1.15-.37-.6-.16-.66s-.28.38-.23.33a6.87,6.87,0,0,1-.94.85,9,9,0,0,1-4.21,1.82,5.44,5.44,0,0,1-1.8,0,2.13,2.13,0,0,1-.49-.15c.21.1-.23-.16-.21-.15s0-.19,0,0c0-.22-.13.06,0-.28A3.92,3.92,0,0,1,71.55,49a4,4,0,0,1,1.9-.26,6,6,0,0,1,.61.14c0,.11-.34-.66-.24-.52-.07-.1.22-.24-.07,0-.09.11-.19.22-.29.32a7.49,7.49,0,0,1-2.16,1.44,7.35,7.35,0,0,1-1.2.4l-.4.1h-.14a1,1,0,0,1,.68,1s.16-.35.14-.32a3.45,3.45,0,0,1,.35-.5,3.75,3.75,0,0,1,.92-.81,2.5,2.5,0,0,1,.35-.21c0,.33-.61-.32-.6-.32a.56.56,0,0,0,0-.13s-.27.4-.32.45a4.68,4.68,0,0,1-2.5,1.44h-.41c.16,0-.08-.12,0,0s.19.4.24.41a3.09,3.09,0,0,1,.39-.33,2.64,2.64,0,0,1,1-.37,11,11,0,0,1,2.43,0,1.5,1.5,0,0,0,0-3Z"/><path class="cls-1" d="M66.18,52.74a10.79,10.79,0,0,0,.55,6c.7,1.74,2.07,4,4.27,3.71a1.52,1.52,0,0,0,1.49-1.55,1.65,1.65,0,0,0-.2-.72,13.17,13.17,0,0,0-3.63-4.39,1.56,1.56,0,0,0-1.82-.24,1.53,1.53,0,0,0-.69,1.7,41.27,41.27,0,0,0,4.33,10.46,1.51,1.51,0,0,0,2.8-.76l-.35-9h-3a61.13,61.13,0,0,0,1.84,9.1,1.51,1.51,0,0,0,2.9-.8c-.62-2.37-1.45-5.22-.44-7.61l-2,.54c-.1-.06,0,0,0,.12s.11.49.14.74c.11.7.19,1.4.27,2.09.17,1.45.31,2.89.42,4.34a1.5,1.5,0,0,0,1.3,1.47A1.49,1.49,0,0,0,76,66.87a46.37,46.37,0,0,1,3.92-12.36L77.32,53l-4,9.13,2.79.76a48.43,48.43,0,0,1,.89-7.5L74.06,55a17.13,17.13,0,0,0,0,3.65,7.61,7.61,0,0,0,.84,3.14A2.8,2.8,0,0,0,78,63a3.78,3.78,0,0,0,2.43-2.22c.83-1.81,1.4-4.58-.32-6.1-1.17-1-2.43-.2-3.16.85a6.65,6.65,0,0,0-1.12,3.31c-.12,1.55,2.07,2,2.8.76a13.68,13.68,0,0,0,1.54-3.63,1.5,1.5,0,0,0-2.89-.79A11.3,11.3,0,0,1,76,58.06l2.79.75a3.48,3.48,0,0,1,.24-1,3.6,3.6,0,0,1,.33-.61c.2-.29.29-.2-.12-.09H78.6l-.6-.34c.39.31.22,1.26.07,1.8a4.18,4.18,0,0,1-.5,1.17,1.89,1.89,0,0,1-.37.32c.16-.23.28.36.11-.35a10.2,10.2,0,0,1-.25-1.34,16,16,0,0,1,0-3.39c.16-1.68-2.61-2-3-.4a53.9,53.9,0,0,0-1,8.3c-.06,1.43,2.19,2.14,2.8.76l4.06-9.13a1.57,1.57,0,0,0-.54-2.06,1.52,1.52,0,0,0-2.06.54A49.28,49.28,0,0,0,73.1,66.07l2.94.4c-.14-1.8-.32-3.6-.55-5.39s-.24-3.5-1.79-4.49a1.52,1.52,0,0,0-2.06.54c-1.38,3.26-.73,6.61.13,9.92l2.9-.8A55.89,55.89,0,0,1,72.93,58a1.54,1.54,0,0,0-1.5-1.5,1.51,1.51,0,0,0-1.5,1.5l.35,9,2.79-.76a38.16,38.16,0,0,1-4-9.74l-2.54,1.46A11.15,11.15,0,0,1,69.7,61.7L71,59.44c-.22,0-.17.08-.38,0a1.56,1.56,0,0,1-.4-.41,6.27,6.27,0,0,1-.85-1.72,7.66,7.66,0,0,1-.29-3.74,1.55,1.55,0,0,0-1-1.84,1.51,1.51,0,0,0-1.85,1Z"/></g><path class="cls-3" d="M552.29,54.72H720v58.72H563.94a24.12,24.12,0,0,1-24.12-24.12V67.19A12.49,12.49,0,0,1,552.29,54.72Z"/><rect class="cls-2" x="449.61" y="257.16" width="204.95" height="117.78" rx="21.63"/><path class="cls-2" d="M449.78,357.19H654.39A17.79,17.79,0,0,1,636.6,375h-169a17.78,17.78,0,0,1-17.82-17.76v0Z"/><circle class="cls-2" cx="676.85" cy="270.23" r="13.07"/><circle class="cls-2" cx="676.85" cy="361.87" r="13.07"/><circle class="cls-2" cx="676.85" cy="331.33" r="13.07"/><circle class="cls-2" cx="676.85" cy="300.78" r="13.07"/><path d="M498.55,37.41H720V88.65H510.2A30.6,30.6,0,0,1,479.59,58V56.38A19,19,0,0,1,498.55,37.41Z"/><rect x="447.55" y="254.97" width="204.95" height="117.78" rx="21.63"/><circle class="cls-2" cx="94.98" cy="350.28" r="27.25"/><path class="cls-3" d="M447.72,355H652.33a17.78,17.78,0,0,1-17.79,17.79h-169A17.78,17.78,0,0,1,447.72,355v0Z"/><circle cx="674.79" cy="268.04" r="13.07"/><g id="Warstwa_3-2" data-name="Warstwa 3-2"><path class="cls-2" d="M87.67,51.51c-2.2-5.36-6.4-9.54-12.46-10a14.48,14.48,0,0,0-13.4,6.64C55,58.79,63.22,71.37,71,78.9a4.19,4.19,0,0,0,5.79,0c7-6.67,14.52-17.26,10.88-27.39C85.9,46.6,78,48.72,79.78,53.68c2.61,7.25-3.93,14.8-8.78,19.4h5.79c-4.63-4.41-11.6-12.31-8.72-19.4.61-1.49,2.73-3.61,4.56-3.93a6.68,6.68,0,0,1,7.15,3.93C81.75,58.49,89.67,56.37,87.67,51.51Z"/><circle class="cls-2" cx="73.92" cy="57.03" r="2.05"/></g><g id="Warstwa_2-2" data-name="Warstwa 2-2"><path class="cls-2" d="M98.93,60.77a10.28,10.28,0,0,1,10.26-10.28h0a10.25,10.25,0,0,1,10.27,10.25h0A10.28,10.28,0,0,1,109.2,71h0A10.29,10.29,0,0,1,98.93,60.77Zm4,0a6.24,6.24,0,0,0,12.48.06v-.06a6.21,6.21,0,0,0-6.2-6.22h0A6.25,6.25,0,0,0,103,60.77Z"/><path class="cls-2" d="M126,69.1V79.29a2,2,0,1,1-4,0V60.93a10.23,10.23,0,0,1,10.25-10.19h0a10.23,10.23,0,0,1-.15,20.45A10.33,10.33,0,0,1,126,69.11Zm0-8.18h0a6.25,6.25,0,0,0,6.26,6.22h0a6.23,6.23,0,0,0,6.22-6.26h0a6.24,6.24,0,0,0-12.48,0Z"/><path class="cls-2" d="M165.35,60.77a2,2,0,0,1-2,2H149.19A6.23,6.23,0,0,0,155.08,67a8,8,0,0,0,4.58-1.37,2,2,0,0,1,2.65.79c0,.06.05.11.07.16a2.13,2.13,0,0,1-1,2.73,10.07,10.07,0,0,1-6.3,1.76,10.25,10.25,0,0,1-10.51-10h0a10.28,10.28,0,0,1,10-10.53h.53a10,10,0,0,1,10.26,9.73A4.34,4.34,0,0,1,165.35,60.77Zm-16.16-2H161a6,6,0,0,0-5.93-4.17,6.25,6.25,0,0,0-5.89,4.17Z"/><path class="cls-2" d="M188.33,60.77V69a2,2,0,0,1-1.73,2.31,2.05,2.05,0,0,1-2.32-1.73,2.81,2.81,0,0,1,0-.58V60.77a6.21,6.21,0,0,0-6.2-6.22h0a6.22,6.22,0,0,0-6.22,6.2V69a2,2,0,0,1-4,.58,1.88,1.88,0,0,1,0-.58V60.77a10.26,10.26,0,0,1,10.26-10.26h0A10.26,10.26,0,0,1,188.33,60.77Z"/><path class="cls-2" d="M211.27,71a10.27,10.27,0,0,1-19.5,4.49,2,2,0,0,1,.86-2.68h.08a2,2,0,0,1,2.7.85l0,0a6.22,6.22,0,0,0,11.82-2.58V68.87A10.38,10.38,0,0,1,201,71a10.26,10.26,0,0,1-10.26-10.26v0a10.27,10.27,0,1,1,20.53,0Zm-4.05-10.26A6.22,6.22,0,1,0,201,67h0A6.23,6.23,0,0,0,207.22,60.77Z"/><path class="cls-2" d="M230.16,52.55v10.3a8.28,8.28,0,0,1-16.56,0h0V52.55a2,2,0,0,1,2.22-1.75h.09a2,2,0,0,1,1.74,1.74V62.77a4.24,4.24,0,0,0,8.47,0h0V52.55a2,2,0,0,1,2.22-1.75h.09A2,2,0,0,1,230.16,52.55Z"/><path class="cls-2" d="M253.15,60.77a2,2,0,0,1-2,2H237A6.23,6.23,0,0,0,242.89,67a8,8,0,0,0,4.58-1.37,2,2,0,0,1,2.65.79l.08.16a2.13,2.13,0,0,1-1,2.73,10.07,10.07,0,0,1-6.3,1.76,10.27,10.27,0,1,1-.53-20.53h.53a10,10,0,0,1,10.25,9.74A4.17,4.17,0,0,1,253.15,60.77ZM237,58.72h11.82a6,6,0,0,0-5.93-4.17A6.26,6.26,0,0,0,237,58.72Z"/><path class="cls-2" d="M267.59,64.9a6.15,6.15,0,0,1-6.1,6.17h0a6.49,6.49,0,0,1-6-4.44,2,2,0,0,1,1.44-2.39H257c1.11-.21,1.88.56,2.42,1.58a1.91,1.91,0,0,0,2,1.23,2.1,2.1,0,1,0,0-4.2,6.18,6.18,0,0,1-4.33-1.8,6,6,0,0,1-1.8-4.34,6.13,6.13,0,0,1,6.11-6.13h0c2.86,0,5.45,2,5.89,4.25a2,2,0,0,1-1.49,2.4h-.06a2.12,2.12,0,0,1-2.42-1.5,1.9,1.9,0,0,0-1.92-1.1,2.08,2.08,0,0,0-2.08,2.08h0a2.08,2.08,0,0,0,2.08,2.08,6.14,6.14,0,0,1,4.34,1.8A6,6,0,0,1,267.59,64.9Z"/><path class="cls-2" d="M282.27,64.9a6.12,6.12,0,0,1-6.08,6.17h0a6.5,6.5,0,0,1-6-4.44,2,2,0,0,1,1.44-2.39h.12c1.1-.21,1.88.56,2.41,1.58a1.91,1.91,0,0,0,2,1.23,2.1,2.1,0,1,0,0-4.2,6.19,6.19,0,0,1-4.33-1.8A6.05,6.05,0,0,1,270,56.69a6.13,6.13,0,0,1,6.13-6.13h0c2.87,0,5.46,2,5.89,4.25a2,2,0,0,1-1.49,2.4h-.06a2.1,2.1,0,0,1-2.41-1.5,1.91,1.91,0,0,0-1.93-1.1,2.08,2.08,0,0,0-2.08,2.08h0a2.08,2.08,0,0,0,2.08,2.08,6.14,6.14,0,0,1,4.34,1.8A6,6,0,0,1,282.27,64.9Z"/></g><circle cx="674.79" cy="359.68" r="13.07"/><circle cx="674.79" cy="329.14" r="13.07"/><circle cx="674.79" cy="298.59" r="13.07"/><circle cx="91.78" cy="346.62" r="26.67"/><g id="Warstwa_3-2-2" data-name="Warstwa 3-2"><path class="cls-3" d="M86.67,49.45c-2.2-5.36-6.4-9.54-12.46-10a14.48,14.48,0,0,0-13.4,6.64C54,56.73,62.22,69.31,70,76.84a4.19,4.19,0,0,0,5.79,0c7-6.67,14.52-17.26,10.88-27.39-1.77-4.91-9.67-2.79-7.89,2.17C81.39,58.87,74.85,66.42,70,71h5.79c-4.63-4.41-11.6-12.31-8.72-19.4.61-1.49,2.73-3.61,4.56-3.93a6.68,6.68,0,0,1,7.15,3.93C80.75,56.43,88.67,54.31,86.67,49.45Z"/><circle class="cls-3" cx="72.92" cy="54.97" r="2.05"/></g><g id="Warstwa_2-2-2" data-name="Warstwa 2-2"><path d="M97.93,58.71a10.27,10.27,0,0,1,10.26-10.28h0a10.26,10.26,0,0,1,10.27,10.25h0A10.28,10.28,0,0,1,108.2,69h0A10.28,10.28,0,0,1,97.93,58.71Zm4,0a6.24,6.24,0,0,0,12.48.06v-.06a6.21,6.21,0,0,0-6.2-6.22h0A6.24,6.24,0,0,0,102,58.71Z"/><path d="M125,67V77.23a2,2,0,1,1-4,0V58.87a10.23,10.23,0,0,1,10.25-10.19h0A10.23,10.23,0,1,1,125,67.05Zm0-8.18h0a6.24,6.24,0,0,0,6.26,6.22h0a6.24,6.24,0,0,0,6.22-6.26h0a6.24,6.24,0,0,0-12.48,0Z"/><path d="M164.35,58.71a2,2,0,0,1-2,2H148.19a6.23,6.23,0,0,0,5.89,4.22,8,8,0,0,0,4.58-1.37,2,2,0,0,1,2.65.79c0,.06.05.11.07.16a2.13,2.13,0,0,1-1,2.73,10.09,10.09,0,0,1-6.3,1.76,10.26,10.26,0,0,1-10.52-10h0a10.27,10.27,0,0,1,10-10.53h.53a10,10,0,0,1,10.26,9.73Zm-16.16-2H160a6,6,0,0,0-5.93-4.17,6.24,6.24,0,0,0-5.89,4.17Z"/><path d="M187.33,58.71v8.21a2,2,0,1,1-4.05.58,2.81,2.81,0,0,1,0-.58V58.71a6.21,6.21,0,0,0-6.2-6.22h0a6.21,6.21,0,0,0-6.22,6.2v8.23a2,2,0,0,1-4,.58,1.88,1.88,0,0,1,0-.58V58.71a10.26,10.26,0,0,1,10.26-10.26h0A10.26,10.26,0,0,1,187.33,58.71Z"/><path d="M210.27,69a10.27,10.27,0,0,1-19.5,4.49,2,2,0,0,1,.86-2.68h.08a2,2,0,0,1,2.7.85l0,.05a6.22,6.22,0,0,0,11.82-2.58V66.81A10.4,10.4,0,0,1,200,69a10.26,10.26,0,0,1-10.26-10.26v0a10.27,10.27,0,1,1,20.53,0Zm-4.05-10.26A6.22,6.22,0,1,0,200,64.92h0A6.24,6.24,0,0,0,206.22,58.71Z"/><path d="M229.16,50.49v10.3a8.28,8.28,0,0,1-16.56,0h0V50.49a2,2,0,0,1,2.22-1.75h.09a2.06,2.06,0,0,1,1.74,1.74V60.71a4.24,4.24,0,0,0,8.47,0h0V50.49a2,2,0,0,1,2.22-1.75h.09A2,2,0,0,1,229.16,50.49Z"/><path d="M252.15,58.71a2,2,0,0,1-2,2H236a6.23,6.23,0,0,0,5.89,4.22,8,8,0,0,0,4.58-1.37,2,2,0,0,1,2.65.79l.08.16a2.13,2.13,0,0,1-1,2.73A10.09,10.09,0,0,1,241.9,69a10.27,10.27,0,1,1-.53-20.53h.53a10,10,0,0,1,10.25,9.74ZM236,56.66h11.82a6,6,0,0,0-5.93-4.17A6.24,6.24,0,0,0,236,56.66Z"/><path d="M266.59,62.84a6.16,6.16,0,0,1-6.1,6.17h0a6.47,6.47,0,0,1-6-4.44,2,2,0,0,1,1.44-2.39H256c1.11-.21,1.88.56,2.42,1.58a1.9,1.9,0,0,0,2,1.23,2.1,2.1,0,1,0,0-4.2,6.18,6.18,0,0,1-4.33-1.8,6,6,0,0,1-1.8-4.34,6.12,6.12,0,0,1,6.11-6.13h0c2.86,0,5.45,2,5.89,4.25a2,2,0,0,1-1.5,2.4h-.05a2.12,2.12,0,0,1-2.42-1.5,1.9,1.9,0,0,0-1.92-1.1,2.08,2.08,0,0,0-2.08,2.08h0a2.08,2.08,0,0,0,2.08,2.08,6.14,6.14,0,0,1,4.34,1.8A6.06,6.06,0,0,1,266.59,62.84Z"/><path d="M281.27,62.84A6.12,6.12,0,0,1,275.18,69h0a6.48,6.48,0,0,1-6-4.44,2,2,0,0,1,1.44-2.39h.12c1.1-.21,1.88.56,2.41,1.58a1.9,1.9,0,0,0,2,1.23,2.1,2.1,0,1,0,0-4.2,6.18,6.18,0,0,1-4.33-1.8A6,6,0,0,1,269,54.63a6.12,6.12,0,0,1,6.13-6.13h0c2.87,0,5.46,2,5.89,4.25a2,2,0,0,1-1.5,2.4h0a2.1,2.1,0,0,1-2.41-1.5,1.93,1.93,0,0,0-1.93-1.1,2.08,2.08,0,0,0-2.08,2.08h0a2.08,2.08,0,0,0,2.08,2.08,6.14,6.14,0,0,1,4.34,1.8A6.07,6.07,0,0,1,281.27,62.84Z"/></g></svg>