<svg id="Warstwa_1" data-name="Warstwa 1" xmlns="http://www.w3.org/2000/svg" viewBox="0 0 720 420.25"><defs><style>.cls-1{fill:#fff;}.cls-2{fill:#e6e6e6;}.cls-3{fill:#e12448;}.cls-4{fill:#ffb8b8;}.cls-5{fill:#6c63ff;}.cls-6,.cls-9{fill:#95164a;}.cls-7{fill:#f2f2f2;}.cls-8{fill:#ad1852;}.cls-9{stroke:#95164a;stroke-miterlimit:10;stroke-width:3px;}</style></defs><g id="Warstwa_2" data-name="Warstwa 2"><rect class="cls-1" y="0.09" width="720" height="420" rx="38.28"/></g><circle class="cls-2" cx="352.44" cy="188.76" r="27.04"/><path class="cls-3" d="M286.16,232.48a6.35,6.35,0,0,0,9,0l0,0,28.26-28.26a29.93,29.93,0,1,0,.76-50.83l-.76.47a29.94,29.94,0,0,0-9,41.37l-28.26,28.26A6.36,6.36,0,0,0,286.16,232.48Zm32-53.42a21.41,21.41,0,1,1,6.27,15.13,21.42,21.42,0,0,1-6.27-15.13Z" transform="translate(0 0)"/><path class="cls-3" d="M393.28,69.25C389,58,381.18,37.64,388.06,15.63A61.28,61.28,0,0,1,395.51.09h143c1.76.8,4.37,2,7.49,3.57,4.27,2.11,58.65,29.72,96.81,79.62,14.41,18.84,70.82,92.6,51.55,182-16.89,78.34-82.85,126.46-100.77,139.54-4.34,3.17-8.06,5.67-10.69,7.4l-394.15,4.36c-2.21-1.1-5.79-2.91-10.12-5.25l-3.66-2C76.82,355.17,72.35,316.19,72.35,316.19c-.23-3-1.94-19.05,7.35-33.17,14.39-21.86,45.59-25,68.53-26.07C262,251.63,336,289.17,382.85,260.68a102.4,102.4,0,0,0,30.77-29.8c3-4.82,11.45-19.56,13.18-43.2C427.54,177.46,427.48,159.33,393.28,69.25Z" transform="translate(0 0)"/><path d="M420.26,89C407.58,53.6,397.14,22,412.4,1.35c.43-.58.8-1,1.05-1.35L681.72.09A39.2,39.2,0,0,1,707.44,10C719.62,21.09,720,35.9,720,38.37V381.81A38.26,38.26,0,0,1,684.45,420l-53.07.11q-220.3.41-440.61-.23c-3.51-1.88-9.13-5-15.78-9.29-10.43-6.71-81.63-52.55-75.37-98.69,2-14.72,11.28-24.91,14.1-27.76,45.38-46,160.24,22,271.54-3.72,15.72-3.63,37.3-10.49,52-29.41,16-20.61,15.89-45.4,15.65-59.58C452.47,168.31,446.8,163.09,420.26,89Z" transform="translate(0 0)"/><path class="cls-3" d="M584.5,102.41a52,52,0,0,0,89.88-3.73A819.77,819.77,0,0,1,584.5,102.41Z" transform="translate(0 0)"/><path class="cls-3" d="M678.71,84.34a52,52,0,1,0-99.82,3.86A386.77,386.77,0,0,0,678.71,84.34Z" transform="translate(0 0)"/><circle class="cls-1" cx="616.34" cy="47.24" r="6.08"/><circle class="cls-1" cx="647.63" cy="66.83" r="10.13"/><circle class="cls-3" cx="494.68" cy="60.28" r="6.76"/><circle class="cls-3" cx="647.37" cy="269.72" r="4.05"/><circle class="cls-3" cx="363.61" cy="408.9" r="4.05"/><circle class="cls-2" cx="627.78" cy="193.38" r="2.03"/><circle class="cls-2" cx="460.22" cy="344.72" r="2.03"/><circle class="cls-2" cx="155.52" cy="325.12" r="2.03"/><circle class="cls-2" cx="250.78" cy="385.25" r="2.03"/><circle class="cls-2" cx="350.1" cy="312.29" r="2.03"/><circle class="cls-2" cx="478.46" cy="112.3" r="2.03"/><circle class="cls-2" cx="462.25" cy="12.31" r="2.03"/><circle class="cls-2" cx="571.7" cy="390.66" r="2.03"/><circle class="cls-2" cx="254.83" cy="317.69" r="2.03" transform="matrix(0.16, -0.99, 0.99, 0.16, -99.58, 518.34)"/><circle class="cls-1" cx="630.16" cy="115.61" r="6.08"/><path class="cls-4" d="M208.49,214.65a23.59,23.59,0,0,1-.33,5.44,24,24,0,0,1-1.35,4.72c2,1.38,8.24,5.44,16.27,4.35,5.73-.77,11.76-3.78,11.74-6.21a11.59,11.59,0,0,1,0-3,9.45,9.45,0,0,1,.59-2.22,21.08,21.08,0,0,1,3.85-5.93Z" transform="translate(0 0)"/><ellipse class="cls-1" cx="531.5" cy="299.11" rx="22.63" ry="4.39"/><path class="cls-4" d="M178.52,178.53a5.84,5.84,0,0,0-.45-.76,7.09,7.09,0,1,0-1.78,9.87l34.87,15.45a5.41,5.41,0,0,0,6.32-1.47l9.32-11.08-9.74-7.65-5.82,5.69-32.28-9a6,6,0,0,0-.44-1Z" transform="translate(0 0)"/><path class="cls-5" d="M212.38,189.09a2.35,2.35,0,0,1-.33-.3,3,3,0,0,1,0-4.24l.05-.05,11-10.54a8.44,8.44,0,0,1,13.36,10.33L229,197.58a3.06,3.06,0,0,1-4.45.95l-.06,0Z" transform="translate(0 0)"/><path class="cls-6" d="M178.24,175.09l12.22,27.17a2.13,2.13,0,0,1-1,2.82h0l-12.29,5.53a2.14,2.14,0,0,1-2.82-1.07l-7.85-17.46a.71.71,0,0,1-.94-.36h0l-.58-1.29a.71.71,0,0,1,.35-.94l-.58-1.29a.71.71,0,0,1-.94-.36h0l-.58-1.29a.71.71,0,0,1,.36-.94h0l-1.46-3.23a2.14,2.14,0,0,1,1.07-2.82l12.29-5.48A2.13,2.13,0,0,1,178.24,175.09Z" transform="translate(0 0)"/><path class="cls-7" d="M188.19,200.69l-1.74-3.85-4.53-10.08-4-8.86a2,2,0,0,0-2.64-1l-.05,0-6.77,3-3.1,1.4a2,2,0,0,0-1,2.7l4.12,9.16,1.58,3.51,4.55,10.13a2.06,2.06,0,0,0,2.71,1l9.85-4.44a2,2,0,0,0,1-2.63Z" transform="translate(0 0)"/><polygon class="cls-4" points="207.76 296.92 195.54 296.92 199.48 328.87 207.76 328.87 207.76 296.92"/><path class="cls-8" d="M209.87,336.9h-2.79a2.59,2.59,0,0,0-1.73-2.31,2.67,2.67,0,0,0-3.08,2.2.43.43,0,0,0,0,.11H183.17v-.33h0a10.4,10.4,0,0,1,10.39-10.4h16.31Z" transform="translate(0 0)"/><polygon class="cls-4" points="186.14 294.89 173.92 294.89 177.86 326.84 186.14 326.84 186.14 294.89"/><path class="cls-8" d="M188.25,334.87H185a2.37,2.37,0,0,0-2-1.7,2.4,2.4,0,0,0-2.53,1.7h-19v-.34h0a10.4,10.4,0,0,1,10.36-10.44h16.43Z" transform="translate(0 0)"/><path class="cls-2" d="M241.87,230a27,27,0,0,0-4.72-5.17c-.72-.62-1.47-1.21-2.24-1.77l-.09-.06-28,1.86-1.61,10.28-36-2.46a12.86,12.86,0,0,0-13.32,16.1l17.32,66a3,3,0,0,0,3,2.27H187a3,3,0,0,0,2.73-3.34h0L188,297.28l-4.21-40.4a120.76,120.76,0,0,0,21.56,11.9c4.92,2,9.94,3.36,14.22,3.24H220a26.64,26.64,0,0,0,24.93-18.11A26,26,0,0,0,241.87,230Z" transform="translate(0 0)"/><path class="cls-2" d="M241.87,230l-18.23,1.21,2.51,10.06-36-2.47a12.85,12.85,0,0,0-13.71,11.95,12.63,12.63,0,0,0,.39,4.15L188,297.28l6.18,23.54a3,3,0,0,0,2.94,2.27h10.8a3.05,3.05,0,0,0,2.72-3.34l-5.29-51-.61-5.82A131.1,131.1,0,0,0,220,272a26.64,26.64,0,0,0,24.93-18.11A26,26,0,0,0,241.87,230Z" transform="translate(0 0)"/><path d="M205.89,214.9a38.35,38.35,0,0,1-1.55-26.4,37.61,37.61,0,0,1,11.14-16.91l-1.28-4.89a3,3,0,0,1,2-3.68l13.23-4.1a3.57,3.57,0,0,1,.47-.11,3.05,3.05,0,0,1,3.44,2.58l.24,1.7c14,12.43,9.47,36.19,9.42,36.43q-1.4,6.07-2.78,12.14a130.34,130.34,0,0,1-16.3,2.69A129.2,129.2,0,0,1,205.89,214.9Z" transform="translate(0 0)"/><path class="cls-4" d="M182.25,205.6a8.14,8.14,0,0,0-.77-.41,7.09,7.09,0,1,0,3.48,9.4h0l37.85-4.5a5.4,5.4,0,0,0,4.7-4.47l2.39-14.28-12.28-1.65-2.11,7.86-32.36,8.69a6.57,6.57,0,0,0-.9-.67Z" transform="translate(0 0)"/><path d="M216.32,197.37a3,3,0,0,1-2.12-3.67s0,0,0-.08l4.15-14.69a8.44,8.44,0,1,1,16.75,2.16l.29,15.31a1.62,1.62,0,0,1,0,.44,3,3,0,0,1-3.32,2.64H232l-15.23-2A3.41,3.41,0,0,1,216.32,197.37Z" transform="translate(0 0)"/><circle class="cls-4" cx="221.04" cy="138.59" r="16.59"/><ellipse class="cls-8" cx="428.11" cy="236.6" rx="32.09" ry="8.23" transform="translate(-2.11 469.34) rotate(-57.34)"/><path class="cls-3" d="M213.52,120.61c6.41-4.41,12.07-5.08,16.71-3.83a6.09,6.09,0,0,1,2.44-2.17c3.62-9.12,14.64-14.6,24.09-11.94s16.09,13.22,14.3,23c-1.11,6-4.91,11.24-6.43,17.18-3,11.49,4.25,24.65,15.52,28.36-10.67,2.14-22.42-4.38-26.25-14.57-1.86-4.95-2-10.35-2.21-15.63s-.66-10.72-3.05-15.44a15.74,15.74,0,0,0-7.55-7.32,6,6,0,0,1-.88,5.42c2.5,3.13,3.87,6.52,3.87,8.55,5.19,9.51-2.24,17.67-11.74,22.87a19.49,19.49,0,0,1-12.44,2.16l-.4-1.69-.5,1.53-1.79,5.12c-2.08,1-4.13,2.1-6.17,3.3.77-3.64,1.4-7.27,1.83-10.81.6-4.83-1.48-12-3-16.4a25.43,25.43,0,0,1-1.42-8.38v-.12L207,134.44l-5.32-2.27C202.64,126.5,201.65,120.09,213.52,120.61Z" transform="translate(0 0)"/><path class="cls-1" d="M567.78,205.29c-5.85-14.3-17.07-25.44-33.23-26.68a38.56,38.56,0,0,0-35.71,17.69c-18.3,28.41,3.76,62,24.55,82a11.15,11.15,0,0,0,15.44,0c18.5-17.77,38.67-46,28.95-73-4.71-13.1-25.79-7.45-21,5.8,6.94,19.32-10.49,39.44-23.36,51.73h15.44c-12.4-11.76-31-32.84-23.31-51.75,1.62-4,7.27-9.61,12.16-10.46a17.78,17.78,0,0,1,19,10.47C552,223.91,573.1,218.34,567.78,205.29Z" transform="translate(0 0)"/><circle class="cls-3" cx="531.12" cy="220.02" r="5.47"/><path class="cls-9" d="M682.22,55.17c17.46,2,30.27,5.49,36.27,9.67V63.13c-6.51-4.13-18.91-7.4-36.1-9.36h0a.71.71,0,0,0-.16,1.41Z" transform="translate(0 0)"/><path class="cls-9" d="M718.49,76.13c-11.41,8.9-47.28,16.78-88.75,18.61C579,97,535.85,89.45,535.36,78.33c-.31-6.44,14.57-13.51,38.8-18.44a.72.72,0,0,0,.51-.76.7.7,0,0,0-.78-.63c-25.72,5.24-40.28,12.52-40,19.92.51,12.3,42.7,20.07,95.88,17.73,41.69-1.83,76-9.28,88.68-18.34Z" transform="translate(0 0)"/></svg>