<svg id="Warstwa_1" data-name="Warstwa 1" xmlns="http://www.w3.org/2000/svg" viewBox="0 0 327.17 58.45"><defs><style>.cls-1{fill:#fff;}.cls-2{fill:#010000;}</style></defs><polygon class="cls-1" points="20.38 5.7 7.83 15.34 10.34 37.45 19.46 47.84 31.21 37.74 34.25 19.84 20.38 5.7"/><g id="Warstwa_3" data-name="Warstwa 3"><path class="cls-2" d="M41.68,14.75C38.46,6.88,32.29.75,23.4.07A21.21,21.21,0,0,0,3.75,9.8C-6.32,25.43,5.82,43.93,17.26,54.93a6.12,6.12,0,0,0,8.49,0C35.93,45.15,47,29.61,41.68,14.75c-2.59-7.21-14.19-4.1-11.57,3.19,3.82,10.63-5.77,21.7-12.85,28.46h8.49c-6.82-6.47-17-18.07-12.82-28.47.89-2.19,4-5.29,6.69-5.76a9.79,9.79,0,0,1,10.49,5.76C33,25,44.61,21.93,41.68,14.75Z" transform="translate(0 0)"/><circle class="cls-2" cx="21.51" cy="22.85" r="3.01"/></g><g id="Warstwa_2" data-name="Warstwa 2"><path class="cls-1" d="M58.2,28.33a15.06,15.06,0,1,1,15.12,15h0A15.07,15.07,0,0,1,58.2,28.33Zm5.94,0a9.12,9.12,0,1,0,9.12-9.12,9.12,9.12,0,0,0-9.12,9.12Z" transform="translate(0 0)"/><path class="cls-1" d="M97.86,40.56V55.5a3,3,0,0,1-5.94,0V28.57a15,15,0,1,1,5.94,12Zm0-12v.06a9.15,9.15,0,1,0,0-.06Z" transform="translate(0 0)"/><path class="cls-1" d="M155.64,28.33a3,3,0,0,1-3,2.93H131.93a9.12,9.12,0,0,0,8.64,6.18,11.65,11.65,0,0,0,6.72-2,2.88,2.88,0,0,1,3.89,1.16,1.63,1.63,0,0,1,.11.23,3.11,3.11,0,0,1-1.44,4,14.67,14.67,0,0,1-9.24,2.58,15.06,15.06,0,1,1-.78-30.11h.78C147.84,13.27,155.64,18.55,155.64,28.33Zm-23.7-3h17.34a8.78,8.78,0,0,0-8.7-6.12,9.16,9.16,0,0,0-8.65,6.12Z" transform="translate(0 0)"/><path class="cls-1" d="M189.36,28.33v12a3,3,0,1,1-5.94,0v-12a9.12,9.12,0,1,0-18.24,0v12a3,3,0,1,1-5.94,0v-12a15.06,15.06,0,0,1,30.12,0Z" transform="translate(0 0)"/><path class="cls-1" d="M223,43.38A15.07,15.07,0,0,1,194.4,50a2.94,2.94,0,0,1,1.22-4l0,0,.11,0a3,3,0,0,1,4,1.32,9.12,9.12,0,0,0,17.33-3.78V40.2A15,15,0,1,1,223,28.33Zm-5.94-15a9.12,9.12,0,1,0-9.14,9.11,9.12,9.12,0,0,0,9.14-9.11v0Z" transform="translate(0 0)"/><path class="cls-1" d="M250.73,16.27V31.39a12.15,12.15,0,1,1-24.3,0V16.27a3,3,0,0,1,5.94,0v15a6.21,6.21,0,0,0,12.42,0h0v-15a3,3,0,0,1,5.94,0Z" transform="translate(0 0)"/><path class="cls-1" d="M284.45,28.33a3,3,0,0,1-3,2.93h-20.7a9.12,9.12,0,0,0,8.64,6.18,11.65,11.65,0,0,0,6.72-2A2.88,2.88,0,0,1,280,36.6a1.63,1.63,0,0,1,.11.23,3.11,3.11,0,0,1-1.44,4,14.67,14.67,0,0,1-9.24,2.58,15.06,15.06,0,1,1-.78-30.11h.78C276.65,13.27,284.45,18.55,284.45,28.33Zm-23.7-3h17.34a8.78,8.78,0,0,0-8.7-6.12,9.17,9.17,0,0,0-8.64,6.12Z" transform="translate(0 0)"/><path class="cls-1" d="M305.63,34.39a9,9,0,0,1-8.95,9h-.05a9.51,9.51,0,0,1-8.82-6.51,2.89,2.89,0,0,1,2.09-3.5h.19c1.62-.3,2.76.83,3.54,2.33a2.79,2.79,0,0,0,3,1.8,3.09,3.09,0,0,0,0-6.17,9,9,0,0,1-6.36-2.64,8.75,8.75,0,0,1-2.64-6.36,9,9,0,0,1,9-9c4.2,0,8,2.88,8.64,6.24A3,3,0,0,1,303,23.13a3.11,3.11,0,0,1-3.54-2.2,2.82,2.82,0,0,0-2.82-1.62,3.06,3.06,0,0,0,0,6.12A9,9,0,0,1,303,28.07,8.84,8.84,0,0,1,305.63,34.39Z" transform="translate(0 0)"/><path class="cls-1" d="M327.17,34.39a9,9,0,0,1-8.95,9h-.05a9.51,9.51,0,0,1-8.82-6.51,2.89,2.89,0,0,1,2.09-3.5h.19c1.62-.3,2.76.83,3.54,2.33a2.79,2.79,0,0,0,3,1.8,3.09,3.09,0,0,0,0-6.17,9,9,0,0,1-6.36-2.64,8.75,8.75,0,0,1-2.64-6.36,9,9,0,0,1,9-9c4.2,0,8,2.88,8.64,6.24a3,3,0,0,1-2.28,3.54,3.11,3.11,0,0,1-3.54-2.2,2.82,2.82,0,0,0-2.82-1.62,3.06,3.06,0,0,0,0,6.12,9,9,0,0,1,6.36,2.64A8.82,8.82,0,0,1,327.17,34.39Z" transform="translate(0 0)"/></g></svg>