<svg id="Warstwa_1" data-name="Warstwa 1" xmlns="http://www.w3.org/2000/svg" viewBox="0 0 67.37 119.51"><defs><style>.cls-1{fill:#fff;}</style></defs><path class="cls-1" d="M730.62,856.34c-2.41-2.6-3.7-3.81-4.23-4.39-1.52-1.67-3.12-3.53-4.77-5.59,0,0-1.62-2-3.85-5.21A140,140,0,0,1,710.26,829c-6.31-11.74-10.06-27.27-10.59-29.49a1.94,1.94,0,0,0-3.83,0,111.06,111.06,0,0,1-31,56.82,2.36,2.36,0,0,0-.82,1.75,2.3,2.3,0,0,0,.79,1.67,111,111,0,0,1,30.62,55.18,2.26,2.26,0,1,0,4.52.26,110.45,110.45,0,0,1,21.62-45.43c2.81-3.51,6-6.73,9-10a2.23,2.23,0,0,0,0-3.42Z" transform="translate(-664.07 -797.88)"/></svg>