<svg id="Warstwa_1" data-name="Warstwa 1" xmlns="http://www.w3.org/2000/svg" viewBox="0 0 100.72 119.44"><defs><style>.cls-1{fill:#fff;}</style></defs><path class="cls-1" d="M190.55-246.54c-2.41-2.6-3.7-3.81-4.23-4.39-1.52-1.67-3.12-3.53-4.77-5.59,0,0-1.62-2-3.85-5.21a137.77,137.77,0,0,1-7.51-12.15c-6.31-11.74-10.06-27.27-10.59-29.49a1.93,1.93,0,0,0-2.23-1.6,1.93,1.93,0,0,0-1.6,1.6,111,111,0,0,1-31,56.82,2.37,2.37,0,0,0-.82,1.75,2.29,2.29,0,0,0,.79,1.67,111,111,0,0,1,30.62,55.18,2.26,2.26,0,0,0,2.13,2.39,2.26,2.26,0,0,0,2.39-2.13h0a110.49,110.49,0,0,1,21.62-45.43c2.81-3.51,6-6.73,9-10a2.23,2.23,0,0,0,.28-3.14,2.47,2.47,0,0,0-.28-.28Z" transform="translate(-90.58 305)"/><path class="cls-1" d="M121.69-220c-1.13-1.21-1.73-1.78-2-2.05-.71-.78-1.46-1.65-2.23-2.61,0,0-.76-.93-1.8-2.43a66.07,66.07,0,0,1-3.5-5.68,64.25,64.25,0,0,1-5-13.77.9.9,0,0,0-1-.75.89.89,0,0,0-.75.75A51.93,51.93,0,0,1,91-220a1.08,1.08,0,0,0-.38.82,1.06,1.06,0,0,0,.36.78,51.82,51.82,0,0,1,14.31,25.77,1,1,0,0,0,1,1.12,1.06,1.06,0,0,0,1.12-1h0a51.61,51.61,0,0,1,10.1-21.22c1.31-1.64,2.8-3.14,4.2-4.67a1,1,0,0,0,.13-1.47l-.13-.13Z" transform="translate(-90.58 305)"/><path class="cls-1" d="M121.83-277.55l-.55-.58a33.07,33.07,0,0,1-7.73-14.58s0-.05,0-.1a.5.5,0,0,0-.59-.43.51.51,0,0,0-.44.43,29.76,29.76,0,0,1-8.32,15.26.58.58,0,0,0-.22.46.59.59,0,0,0,.21.45,29.79,29.79,0,0,1,8.22,14.82.61.61,0,0,0,.58.64.6.6,0,0,0,.64-.57,29.76,29.76,0,0,1,5.8-12.2c.76-.94,1.62-1.81,2.42-2.68a.61.61,0,0,0,.08-.85l-.08-.07Z" transform="translate(-90.58 305)"/></svg>