<svg id="Warstwa_5" data-name="Warstwa 5" xmlns="http://www.w3.org/2000/svg" viewBox="0 0 79.26 79.26"><defs><style>.cls-1{fill:#fff;}.cls-2{fill:#e11d48;}</style></defs><rect class="cls-1" width="79.26" height="79.26" rx="15.91"/><path class="cls-2" d="M80.66-314.14c-3.22-7.88-9.39-14-18.29-14.68a21.19,21.19,0,0,0-19.64,9.72C32.66-303.46,44.8-284.94,56.24-274a6.11,6.11,0,0,0,8.49,0C74.9-283.74,86-299.28,80.66-314.14c-2.6-7.21-14.2-4.1-11.57,3.19,3.82,10.62-5.77,21.69-12.85,28.46h8.49c-6.83-6.52-17-18.08-12.85-28.44.88-2.19,4-5.28,6.69-5.76a9.8,9.8,0,0,1,10.52,5.74C72-303.9,83.59-307,80.66-314.14Z" transform="translate(-20.85 340.21)"/><circle class="cls-2" cx="39.63" cy="34.16" r="3.01"/></svg>