<svg id="Warstwa_1" data-name="Warstwa 1" xmlns="http://www.w3.org/2000/svg" viewBox="0 0 2999.27 1066.55"><defs><style>.cls-1{fill:#fff;}.cls-2{fill:#ff3434;}</style></defs><path class="cls-1" d="M134.18,1198.46H2999.27v504.65H370.47C165.87,1703.11,0,1537.25,0,1332.64H0a134.18,134.18,0,0,1,134.18-134.18Z" transform="translate(0 -1198.46)"/><path class="cls-2" d="M928.41,1703.11H2999.27v267.4H1195.81c-147.68,0-267.4-119.72-267.4-267.4Z" transform="translate(0 -1198.46)"/><path d="M1499.64,772H2999.27a0,0,0,0,1,0,0v294.5a0,0,0,0,1,0,0H1794.14a294.5,294.5,0,0,1-294.5-294.5v0A0,0,0,0,1,1499.64,772Z"/></svg>