<svg id="Warstwa_1" data-name="Warstwa 1" xmlns="http://www.w3.org/2000/svg" viewBox="0 0 48.04 149.5"><defs><style>.cls-1{fill:#e1234b;}.cls-2{fill:#fff;}</style></defs><path class="cls-1" d="M53.22,110.39a11.33,11.33,0,0,0-.37-3.14L34,38.2a5,5,0,0,0-9.66,0L5.55,107.25a11.33,11.33,0,0,0-.37,3.14Z" transform="translate(-5.18 -34.51)"/><path d="M5.89,110.08a.69.69,0,0,0-.7.71,10.82,10.82,0,0,0,.36,2.44L23.7,179.81a5.7,5.7,0,0,0,11,0l18.15-66.58a10.82,10.82,0,0,0,.36-2.44.69.69,0,0,0-.7-.71Z" transform="translate(-5.18 -34.51)"/><path class="cls-2" d="M36.5,94.66H32.12l-5.84-8.81v8.81H21.9V78.9h4.38l5.84,8.92V78.9H36.5Z" transform="translate(-5.18 -34.51)"/><path class="cls-2" d="M35.27,110.08a6.07,6.07,0,1,0-6.07,6.07,6.06,6.06,0,0,0,6.07-6.07Z" transform="translate(-5.18 -34.51)"/></svg>