<svg id="Warstwa_1" data-name="Warstwa 1" xmlns="http://www.w3.org/2000/svg" xmlns:xlink="http://www.w3.org/1999/xlink" viewBox="0 0 292 56.9"><defs><style>.cls-1{fill:none;}.cls-2{clip-path:url(#clip-path);}.cls-3{fill:#000;}.cls-4{fill:#000;}</style><clipPath id="clip-path" transform="translate(89.58 229.67)"><rect class="cls-1" x="-89.58" y="-229.25" width="292" height="56.47"/></clipPath></defs><g class="cls-2"><g class="cls-2"><path class="cls-3" d="M-27.79-224.52a59.58,59.58,0,0,0-15.05-4.73c-.64,1.17-1.4,2.75-1.92,4a55.52,55.52,0,0,0-16.68,0c-.53-1.25-1.3-2.83-2-4a59.74,59.74,0,0,0-15.07,4.74c-9.52,14.4-12.1,28.43-10.81,42.27a60.25,60.25,0,0,0,18.46,9.46,46.63,46.63,0,0,0,4-6.51,39.42,39.42,0,0,1-6.23-3c.53-.39,1-.8,1.53-1.21a42.58,42.58,0,0,0,36.91,0c.49.41,1,.82,1.52,1.21a37.86,37.86,0,0,1-6.24,3,46.11,46.11,0,0,0,4,6.51,60.07,60.07,0,0,0,18.47-9.46A63.08,63.08,0,0,0-27.79-224.52Zm-37.44,33.77c-3.6,0-6.55-3.37-6.55-7.46s2.89-7.47,6.55-7.47,6.63,3.37,6.56,7.47S-61.56-190.75-65.23-190.75Zm24.24,0c-3.6,0-6.56-3.37-6.56-7.46s2.89-7.47,6.56-7.47,6.62,3.37,6.56,7.47S-37.32-190.75-41-190.75Z" transform="translate(89.58 229.67)"/><path class="cls-3" d="M8.58-205H24.25a22.75,22.75,0,0,1,9.58,1.81,12.84,12.84,0,0,1,5.86,5,13.92,13.92,0,0,1,2,7.37,13.72,13.72,0,0,1-2,7.36,13.75,13.75,0,0,1-6.18,5.22,24.39,24.39,0,0,1-10.31,1.93H8.58ZM23-183.55a8.25,8.25,0,0,0,5.87-1.95,7,7,0,0,0,2-5.32,6.8,6.8,0,0,0-1.82-5,7.43,7.43,0,0,0-5.52-1.87h-4.9v14.12Z" transform="translate(89.58 229.67)"/><path class="cls-3" d="M65.09-176.29a21.17,21.17,0,0,1-5.86-2.51v-6.81A16,16,0,0,0,64.51-183a22.06,22.06,0,0,0,6.41,1,5,5,0,0,0,2.19-.38c.49-.26.74-.57.74-.93a1.42,1.42,0,0,0-.4-1,3.45,3.45,0,0,0-1.57-.69l-4.82-1.11a12.44,12.44,0,0,1-5.88-2.73,6.19,6.19,0,0,1-1.74-4.57A6.13,6.13,0,0,1,61-197.63a9.78,9.78,0,0,1,4.34-2.72,20.15,20.15,0,0,1,6.59-1,24.35,24.35,0,0,1,6.18.74,16.74,16.74,0,0,1,4.66,1.89v6.44a17.12,17.12,0,0,0-4.36-1.83,19.2,19.2,0,0,0-5.08-.67c-2.52,0-3.78.44-3.78,1.31a1,1,0,0,0,.59.92,10.12,10.12,0,0,0,2.14.64l4,.74a11.64,11.64,0,0,1,5.86,2.43,6.58,6.58,0,0,1,1.93,5.16,6.85,6.85,0,0,1-3.19,5.93q-3.19,2.19-9.06,2.19A26.32,26.32,0,0,1,65.09-176.29Z" transform="translate(89.58 229.67)"/><path class="cls-3" d="M93.53-177.16a12.05,12.05,0,0,1-5.2-4.67,12.87,12.87,0,0,1-1.74-6.65,12.21,12.21,0,0,1,1.81-6.6,12.13,12.13,0,0,1,5.3-4.57,19.25,19.25,0,0,1,8.35-1.66,18,18,0,0,1,10,2.58v7.51a12.15,12.15,0,0,0-3.27-1.6,12.65,12.65,0,0,0-4-.62,10.51,10.51,0,0,0-5.84,1.4,4.22,4.22,0,0,0-2.11,3.65,4.25,4.25,0,0,0,2,3.63,10.36,10.36,0,0,0,5.94,1.42,13.72,13.72,0,0,0,4-.59,14.67,14.67,0,0,0,3.35-1.46v7.26a19.12,19.12,0,0,1-10.24,2.71A18.68,18.68,0,0,1,93.53-177.16Z" transform="translate(89.58 229.67)"/><path class="cls-3" d="M122.07-177.16a12.45,12.45,0,0,1-5.3-4.71,12.59,12.59,0,0,1-1.83-6.69,12.08,12.08,0,0,1,1.83-6.59,12.34,12.34,0,0,1,5.28-4.53,19,19,0,0,1,8.24-1.64,18.94,18.94,0,0,1,8.23,1.64,12.13,12.13,0,0,1,5.26,4.51,12.09,12.09,0,0,1,1.81,6.6,12.64,12.64,0,0,1-1.81,6.69,12.36,12.36,0,0,1-5.28,4.72,18.31,18.31,0,0,1-8.22,1.72A18.24,18.24,0,0,1,122.07-177.16Zm12.21-7.27a5.45,5.45,0,0,0,1.46-4,5.23,5.23,0,0,0-1.46-3.91,5.39,5.39,0,0,0-4-1.46,5.46,5.46,0,0,0-4,1.46,5.28,5.28,0,0,0-1.46,3.91,5.45,5.45,0,0,0,1.46,4,5.44,5.44,0,0,0,4,1.5A5.42,5.42,0,0,0,134.28-184.43Z" transform="translate(89.58 229.67)"/><path class="cls-3" d="M169.72-199.8v8.86a7,7,0,0,0-4-1,6.19,6.19,0,0,0-4.94,2c-1.16,1.33-1.73,3.39-1.73,6.18v7.55h-9.84v-24h9.64v7.63a12.8,12.8,0,0,1,2.59-6.18,5.92,5.92,0,0,1,4.6-2A6.55,6.55,0,0,1,169.72-199.8Z" transform="translate(89.58 229.67)"/><path class="cls-3" d="M202.42-205.79v29.54h-9.84v-5.38a9.51,9.51,0,0,1-3.8,4.62,11.71,11.71,0,0,1-6.28,1.58,10.23,10.23,0,0,1-5.83-1.66,10.91,10.91,0,0,1-3.84-4.55,15.46,15.46,0,0,1-1.35-6.55,14.91,14.91,0,0,1,1.43-6.77,11.23,11.23,0,0,1,4.14-4.68,11.19,11.19,0,0,1,6.09-1.68q7,0,9.44,6.24v-10.71ZM191.11-184.6a5.22,5.22,0,0,0,1.5-3.87,5,5,0,0,0-1.46-3.73,5.46,5.46,0,0,0-4-1.44,5.44,5.44,0,0,0-4,1.46,5.07,5.07,0,0,0-1.49,3.79,5.17,5.17,0,0,0,1.49,3.82,5.34,5.34,0,0,0,3.93,1.47A5.43,5.43,0,0,0,191.11-184.6Z" transform="translate(89.58 229.67)"/><path class="cls-3" d="M49.94-197.7a4.71,4.71,0,0,0,4.9-4.5,4.72,4.72,0,0,0-4.9-4.5A4.72,4.72,0,0,0,45-202.2,4.72,4.72,0,0,0,49.94-197.7Z" transform="translate(89.58 229.67)"/><path class="cls-3" d="M45-194.6a12.3,12.3,0,0,0,9.81,0v18.48H45Z" transform="translate(89.58 229.67)"/></g></g><path class="cls-4" d="M13.4-213.49h5.33v3.66H8.63V-227H13.4Z" transform="translate(89.58 229.67)"/><path class="cls-4" d="M23.27-210.52a6.13,6.13,0,0,1-2.54-2.43,7.21,7.21,0,0,1-.93-3.72,7,7,0,0,1,.94-3.7,6.3,6.3,0,0,1,2.55-2.44,7.73,7.73,0,0,1,3.67-.85,7.72,7.72,0,0,1,3.66.85,6.39,6.39,0,0,1,2.56,2.44,7.13,7.13,0,0,1,.93,3.7,7.25,7.25,0,0,1-.93,3.71,6.29,6.29,0,0,1-2.57,2.44,7.8,7.8,0,0,1-3.68.86A7.72,7.72,0,0,1,23.27-210.52Zm5.33-4a3.07,3.07,0,0,0,.67-2.13,3,3,0,0,0-.67-2.12,2.13,2.13,0,0,0-1.64-.73,2.08,2.08,0,0,0-1.63.73,3,3,0,0,0-.66,2.12,3.2,3.2,0,0,0,.63,2.14,2.08,2.08,0,0,0,1.63.73A2.17,2.17,0,0,0,28.6-214.54Z" transform="translate(89.58 229.67)"/><path class="cls-4" d="M43.52-223.1a4.09,4.09,0,0,1,1.6,1.51v-1.9h4.77v12.42a8.24,8.24,0,0,0-6.51,2.36A8.11,8.11,0,0,0,41.21-203a8.12,8.12,0,0,1-3.3-1.64,6.17,6.17,0,0,1-1.25-1.34,6.07,6.07,0,0,1-.92-2.7h4.7a1.63,1.63,0,0,0,.23.54,1.56,1.56,0,0,0,.5.48,3.09,3.09,0,0,0,1,.42,8.71,8.71,0,0,1,1.24-1.51,8.69,8.69,0,0,1,1.9-1.36l-.16-1.66a4.16,4.16,0,0,1-1.6,1.51,5,5,0,0,1-2.42.56,5.36,5.36,0,0,1-3-.86A5.78,5.78,0,0,1,36.05-213a8.51,8.51,0,0,1-.77-3.71,8.37,8.37,0,0,1,.77-3.7,5.84,5.84,0,0,1,2.09-2.44,5.35,5.35,0,0,1,3-.85A5,5,0,0,1,43.52-223.1Zm.88,4.36a2.33,2.33,0,0,0-1.77-.76,2.35,2.35,0,0,0-1.77.74,2.92,2.92,0,0,0-.71,2.09,3,3,0,0,0,.71,2.08,2.3,2.3,0,0,0,1.77.76,2.36,2.36,0,0,0,1.77-.75,2.9,2.9,0,0,0,.72-2.09A2.87,2.87,0,0,0,44.4-218.74Z" transform="translate(89.58 229.67)"/><path class="cls-4" d="M53-225.45a2.25,2.25,0,0,1-.77-1.74A2.33,2.33,0,0,1,53-229a2.88,2.88,0,0,1,2-.7,2.85,2.85,0,0,1,2,.7,2.33,2.33,0,0,1,.77,1.78,2.25,2.25,0,0,1-.77,1.74,2.89,2.89,0,0,1-2,.69A2.92,2.92,0,0,1,53-225.45Zm4.39,2v13.66H52.61v-13.66Z" transform="translate(89.58 229.67)"/><path class="cls-4" d="M72.79-222a6.15,6.15,0,0,1,1.39,4.25v8H69.41v-7.33A2.62,2.62,0,0,0,68.8-219a2.08,2.08,0,0,0-1.63-.67,2.16,2.16,0,0,0-1.68.67,2.67,2.67,0,0,0-.61,1.84v7.33H60.11v-13.66h4.77v2a4.63,4.63,0,0,1,1.71-1.5,5.13,5.13,0,0,1,2.46-.57A4.72,4.72,0,0,1,72.79-222Z" transform="translate(89.58 229.67)"/><path class="cls-4" d="M101.64-223.49l-3.48,13.66H92.8l-1.9-8.28-2,8.28H83.6l-3.46-13.66h4.75l1.53,9.06,2-9.06h5.11l2.09,9.08,1.51-9.08Z" transform="translate(89.58 229.67)"/><path class="cls-4" d="M103.38-225.45a2.25,2.25,0,0,1-.77-1.74,2.33,2.33,0,0,1,.77-1.78,2.88,2.88,0,0,1,2-.7,2.85,2.85,0,0,1,2,.7,2.33,2.33,0,0,1,.77,1.78,2.25,2.25,0,0,1-.77,1.74,2.89,2.89,0,0,1-2,.69A2.92,2.92,0,0,1,103.38-225.45Zm4.39,2v13.66H103v-13.66Z" transform="translate(89.58 229.67)"/><path class="cls-4" d="M118.56-213.9v4.07h-2.07q-5.23,0-5.24-5.19v-4.5h-1.68v-4h1.68v-3.31h4.8v3.31h2.48v4h-2.48v4.57a1,1,0,0,0,.26.81,1.23,1.23,0,0,0,.86.24Z" transform="translate(89.58 229.67)"/><path class="cls-4" d="M133.44-222a6.19,6.19,0,0,1,1.38,4.25v8h-4.77v-7.33a2.67,2.67,0,0,0-.61-1.84,2.09,2.09,0,0,0-1.63-.67,2.13,2.13,0,0,0-1.68.67,2.62,2.62,0,0,0-.61,1.84v7.33h-4.77v-18h4.77v6.31a4.58,4.58,0,0,1,1.72-1.5,5.26,5.26,0,0,1,2.49-.57A4.66,4.66,0,0,1,133.44-222Z" transform="translate(89.58 229.67)"/></svg>